<svg width="306" height="10" viewBox="0 0 306 10" fill="none" xmlns="http://www.w3.org/2000/svg">
<path d="M281.491 1.10183C274.806 0.858588 268.111 0.685078 261.421 0.476241C259.214 0.408003 257 0.403811 254.791 0.36827C250 0.292213 245.208 0.216085 240.417 0.140028C237.749 0.0972376 235.078 0.0447798 232.411 0.0128641C231.638 0.00341034 230.865 6.96182e-05 230.091 6.96182e-05C228.353 6.96182e-05 226.614 0.016489 224.877 0.0184088C216.973 0.0233841 209.07 0.0292139 201.164 0.0348291C199.283 0.0361805 197.4 0.0639696 195.52 0.0803185C190.861 0.11728 186.204 0.155028 181.544 0.194194C176.289 0.236132 171.032 0.253899 165.778 0.334647C157.274 0.46572 148.77 0.596229 140.265 0.727871C135.343 0.802506 130.416 0.845865 125.495 0.967983C117.014 1.17796 108.535 1.38615 100.054 1.59357C95.4214 1.70658 90.7837 1.80127 86.1541 1.96177C77.3854 2.26472 68.6173 2.56902 59.8476 2.87388C55.1618 3.03659 50.4713 3.15679 45.7958 3.40479C37.0658 3.86682 28.3353 4.32962 19.6053 4.79222C17.7195 4.89195 15.8329 4.99132 13.945 5.09212C10.1758 5.29121 6.41859 5.60105 2.65966 5.86484C2.42435 5.88566 2.18801 5.90486 1.95178 5.92455C1.50243 6.00338 1.11161 6.14418 0.778885 6.35046C0.28265 6.65895 0 7.08097 0 7.5189C0 7.95534 0.28265 8.37962 0.778885 8.68754C1.23007 8.9691 1.99866 9.21788 2.65966 9.17232C7.1953 8.85473 11.7243 8.51759 16.2724 8.27797C20.4861 8.05506 24.6991 7.83315 28.9128 7.6113C33.5119 7.36892 38.1096 7.12653 42.7072 6.88499C44.5591 6.78697 46.4162 6.65753 48.2711 6.59342C55.441 6.34606 62.6105 6.10225 69.7813 5.85787C74.25 5.70433 78.7209 5.55137 83.1893 5.39783C85.0359 5.3345 86.8825 5.25567 88.729 5.21011C95.8341 5.03241 102.94 4.87112 110.044 4.70202C114.351 4.59895 118.658 4.49795 122.964 4.39488C124.411 4.36019 125.859 4.3169 127.306 4.29465C134.98 4.1844 142.651 4.07643 150.323 3.96839C154.607 3.90733 158.89 3.84677 163.175 3.78571C164.701 3.76375 166.225 3.73183 167.751 3.72238C175.663 3.67134 183.574 3.62159 191.486 3.57112C196.424 3.53913 201.355 3.50999 206.292 3.51781C214.694 3.53053 223.097 3.54276 231.497 3.5547C233.155 3.5569 234.812 3.60026 236.469 3.63026C241.106 3.71463 245.744 3.79929 250.381 3.88374C253.859 3.94785 257.338 4.01118 260.818 4.07451C263.285 4.11915 265.751 4.2336 268.216 4.3169C275.476 4.56064 282.733 4.81219 289.991 5.09375C291.833 5.1654 293.675 5.25233 295.519 5.33621C297.492 5.42506 299.472 5.51164 301.44 5.65024C301.747 5.68159 302.051 5.71713 302.357 5.75822C303.132 5.85986 303.879 5.83207 304.575 5.57774C305.22 5.34395 305.701 4.95492 305.899 4.50789C306.316 3.56692 305.4 2.56681 303.888 2.30658C302.566 2.07919 301.193 1.98814 299.83 1.90292C298.897 1.84378 297.964 1.78492 297.031 1.72713C295.236 1.61496 293.427 1.55803 291.629 1.47366C288.255 1.31564 284.87 1.22402 281.491 1.10183Z" fill="#FF7A00"/>
</svg>
