<svg width="309" height="44" viewBox="0 0 309 44" fill="none" xmlns="http://www.w3.org/2000/svg">
<path d="M0.08 25.672V19.048L20.72 8.008V14.632L6.464 22.168V22.552L20.72 30.088V36.712L0.08 25.672ZM39.9493 37.576C35.4693 37.576 32.1413 36.072 29.9653 33.064C27.8213 30.024 26.7493 25.752 26.7493 20.248C26.7493 14.744 27.8213 10.488 29.9653 7.48C32.1413 4.44 35.4693 2.92 39.9493 2.92C41.6773 2.92 43.1973 3.16 44.5093 3.64C45.8533 4.088 47.0053 4.728 47.9653 5.56C48.9253 6.392 49.7093 7.4 50.3173 8.584C50.9573 9.768 51.4533 11.096 51.8053 12.568L45.0853 14.2C44.8933 13.4 44.6693 12.664 44.4133 11.992C44.1573 11.32 43.8213 10.744 43.4053 10.264C43.0213 9.784 42.5253 9.416 41.9173 9.16C41.3413 8.872 40.6373 8.728 39.8053 8.728C37.8533 8.728 36.4613 9.496 35.6293 11.032C34.8293 12.536 34.4293 14.632 34.4293 17.32V23.176C34.4293 25.864 34.8293 27.976 35.6293 29.512C36.4613 31.016 37.8533 31.768 39.8053 31.768C41.4693 31.768 42.6693 31.256 43.4053 30.232C44.1733 29.208 44.7333 27.896 45.0853 26.296L51.8053 27.928C51.4533 29.4 50.9573 30.728 50.3173 31.912C49.7093 33.096 48.9253 34.12 47.9653 34.984C47.0053 35.816 45.8533 36.456 44.5093 36.904C43.1973 37.352 41.6773 37.576 39.9493 37.576ZM57.1145 31.48H62.8265V17.752H57.1145V12.232H69.9305V19.24H70.2665C70.4905 18.344 70.7945 17.48 71.1785 16.648C71.5945 15.784 72.1065 15.032 72.7145 14.392C73.3545 13.72 74.1225 13.192 75.0185 12.808C75.9145 12.424 76.9705 12.232 78.1865 12.232H80.5385V18.76H75.2585C73.4985 18.76 72.1705 19.288 71.2745 20.344C70.3785 21.368 69.9305 22.632 69.9305 24.136V31.48H78.0905V37H57.1145V31.48ZM86.8558 37V31.192H95.8798V8.728H95.4478L88.6318 17.656L84.0238 14.056L92.0398 3.496H103.08V31.192H110.184V37H86.8558ZM125.237 37.576C122.485 37.576 120.085 37.16 118.037 36.328C116.021 35.496 114.501 34.36 113.477 32.92L117.461 29.224C118.421 30.28 119.541 31.112 120.821 31.72C122.133 32.296 123.621 32.584 125.285 32.584C126.693 32.584 127.797 32.376 128.597 31.96C129.397 31.512 129.797 30.84 129.797 29.944C129.797 29.24 129.525 28.76 128.981 28.504C128.437 28.216 127.685 27.992 126.725 27.832L122.741 27.208C121.621 27.048 120.581 26.808 119.621 26.488C118.661 26.136 117.829 25.672 117.125 25.096C116.421 24.52 115.861 23.816 115.445 22.984C115.029 22.152 114.821 21.144 114.821 19.96C114.821 17.368 115.813 15.336 117.797 13.864C119.781 12.392 122.565 11.656 126.149 11.656C128.581 11.656 130.645 11.992 132.341 12.664C134.069 13.304 135.445 14.232 136.469 15.448L132.917 19.48C132.181 18.68 131.237 18.008 130.085 17.464C128.933 16.92 127.541 16.648 125.909 16.648C123.157 16.648 121.781 17.48 121.781 19.144C121.781 19.88 122.053 20.392 122.597 20.68C123.141 20.936 123.893 21.144 124.853 21.304L128.789 21.928C129.909 22.088 130.949 22.344 131.909 22.696C132.869 23.016 133.701 23.464 134.405 24.04C135.141 24.616 135.717 25.32 136.133 26.152C136.549 26.984 136.757 27.992 136.757 29.176C136.757 31.768 135.749 33.816 133.733 35.32C131.749 36.824 128.917 37.576 125.237 37.576ZM156.226 37C153.666 37 151.762 36.328 150.514 34.984C149.266 33.64 148.642 31.928 148.642 29.848V17.752H141.922V12.232H146.29C147.346 12.232 148.098 12.024 148.546 11.608C148.994 11.192 149.218 10.424 149.218 9.304V3.496H155.746V12.232H165.394V17.752H155.746V31.48H165.394V37H156.226ZM183.088 37.576C181.168 37.576 179.44 37.288 177.904 36.712C176.368 36.104 175.056 35.24 173.968 34.12C172.912 33 172.096 31.64 171.52 30.04C170.944 28.44 170.656 26.632 170.656 24.616C170.656 22.6 170.944 20.792 171.52 19.192C172.096 17.592 172.912 16.232 173.968 15.112C175.056 13.992 176.368 13.144 177.904 12.568C179.44 11.96 181.168 11.656 183.088 11.656C185.008 11.656 186.736 11.96 188.272 12.568C189.808 13.144 191.104 13.992 192.16 15.112C193.248 16.232 194.08 17.592 194.656 19.192C195.232 20.792 195.52 22.6 195.52 24.616C195.52 26.632 195.232 28.44 194.656 30.04C194.08 31.64 193.248 33 192.16 34.12C191.104 35.24 189.808 36.104 188.272 36.712C186.736 37.288 185.008 37.576 183.088 37.576ZM183.088 32.296C184.688 32.296 185.936 31.8 186.832 30.808C187.728 29.816 188.176 28.408 188.176 26.584V22.648C188.176 20.824 187.728 19.416 186.832 18.424C185.936 17.432 184.688 16.936 183.088 16.936C181.488 16.936 180.24 17.432 179.344 18.424C178.448 19.416 178 20.824 178 22.648V26.584C178 28.408 178.448 29.816 179.344 30.808C180.24 31.8 181.488 32.296 183.088 32.296ZM200.877 31.48H208.173V17.752H200.397V12.232H208.173V8.632C208.173 6.52 208.781 4.808 209.997 3.496C211.245 2.152 213.165 1.48 215.757 1.48H224.157V7H215.277V12.232H224.157V17.752H215.277V31.48H223.053V37H200.877V31.48ZM241.322 37.576C237.162 37.576 234.01 36.424 231.866 34.12C229.722 31.816 228.65 28.68 228.65 24.712C228.65 22.696 228.922 20.888 229.466 19.288C230.042 17.656 230.842 16.28 231.866 15.16C232.922 14.008 234.186 13.144 235.658 12.568C237.162 11.96 238.842 11.656 240.698 11.656C242.554 11.656 244.218 11.96 245.69 12.568C247.162 13.144 248.41 13.976 249.434 15.064C250.458 16.152 251.242 17.48 251.786 19.048C252.362 20.584 252.65 22.312 252.65 24.232V26.344H235.706V26.776C235.706 28.376 236.202 29.672 237.194 30.664C238.186 31.624 239.642 32.104 241.562 32.104C243.034 32.104 244.298 31.832 245.354 31.288C246.41 30.712 247.322 29.96 248.09 29.032L251.93 33.208C250.97 34.392 249.626 35.416 247.898 36.28C246.17 37.144 243.978 37.576 241.322 37.576ZM240.746 16.744C239.21 16.744 237.978 17.224 237.05 18.184C236.154 19.112 235.706 20.376 235.706 21.976V22.36H245.69V21.976C245.69 20.344 245.242 19.064 244.346 18.136C243.482 17.208 242.282 16.744 240.746 16.744ZM258.535 43.624L273.943 0.519998H280.327L264.919 43.624H258.535ZM287.893 30.088L302.149 22.552V22.168L287.893 14.632V8.008L308.533 19.048V25.672L287.893 36.712V30.088Z" fill="#E0E7EA"/>
</svg>
