<svg width="207" height="30" viewBox="0 0 207 30" fill="none" xmlns="http://www.w3.org/2000/svg">
<path d="M0.72 17.448V13.032L14.48 5.672V10.088L4.976 15.112V15.368L14.48 20.392V24.808L0.72 17.448ZM27.2995 25.384C24.3128 25.384 22.0942 24.3813 20.6435 22.376C19.2142 20.3493 18.4995 17.5013 18.4995 13.832C18.4995 10.1627 19.2142 7.32533 20.6435 5.32C22.0942 3.29333 24.3128 2.28 27.2995 2.28C28.4515 2.28 29.4648 2.44 30.3395 2.76C31.2355 3.05866 32.0035 3.48533 32.6435 4.04C33.2835 4.59467 33.8062 5.26667 34.2115 6.056C34.6382 6.84533 34.9688 7.73067 35.2035 8.712L30.7235 9.8C30.5955 9.26667 30.4462 8.776 30.2755 8.328C30.1048 7.88 29.8808 7.496 29.6035 7.176C29.3475 6.856 29.0168 6.61067 28.6115 6.44C28.2275 6.248 27.7582 6.152 27.2035 6.152C25.9022 6.152 24.9742 6.664 24.4195 7.688C23.8862 8.69067 23.6195 10.088 23.6195 11.88V15.784C23.6195 17.576 23.8862 18.984 24.4195 20.008C24.9742 21.0107 25.9022 21.512 27.2035 21.512C28.3128 21.512 29.1128 21.1707 29.6035 20.488C30.1155 19.8053 30.4888 18.9307 30.7235 17.864L35.2035 18.952C34.9688 19.9333 34.6382 20.8187 34.2115 21.608C33.8062 22.3973 33.2835 23.08 32.6435 23.656C32.0035 24.2107 31.2355 24.6373 30.3395 24.936C29.4648 25.2347 28.4515 25.384 27.2995 25.384ZM38.743 21.32H42.551V12.168H38.743V8.488H47.287V13.16H47.511C47.6603 12.5627 47.863 11.9867 48.119 11.432C48.3963 10.856 48.7377 10.3547 49.143 9.928C49.5697 9.48 50.0817 9.128 50.679 8.872C51.2763 8.616 51.9803 8.488 52.791 8.488H54.359V12.84H50.839C49.6657 12.84 48.7803 13.192 48.183 13.896C47.5857 14.5787 47.287 15.4213 47.287 16.424V21.32H52.727V25H38.743V21.32ZM58.5705 25V21.128H64.5865V6.152H64.2985L59.7545 12.104L56.6825 9.704L62.0265 2.664H69.3865V21.128H74.1225V25H58.5705ZM84.158 25.384C82.3233 25.384 80.7233 25.1067 79.358 24.552C78.014 23.9973 77.0007 23.24 76.318 22.28L78.974 19.816C79.614 20.52 80.3607 21.0747 81.214 21.48C82.0887 21.864 83.0807 22.056 84.19 22.056C85.1287 22.056 85.8647 21.9173 86.398 21.64C86.9313 21.3413 87.198 20.8933 87.198 20.296C87.198 19.8267 87.0167 19.5067 86.654 19.336C86.2913 19.144 85.79 18.9947 85.15 18.888L82.494 18.472C81.7473 18.3653 81.054 18.2053 80.414 17.992C79.774 17.7573 79.2193 17.448 78.75 17.064C78.2807 16.68 77.9073 16.2107 77.63 15.656C77.3527 15.1013 77.214 14.4293 77.214 13.64C77.214 11.912 77.8753 10.5573 79.198 9.576C80.5207 8.59467 82.3767 8.104 84.766 8.104C86.3873 8.104 87.7633 8.328 88.894 8.776C90.046 9.20267 90.9633 9.82133 91.646 10.632L89.278 13.32C88.7873 12.7867 88.158 12.3387 87.39 11.976C86.622 11.6133 85.694 11.432 84.606 11.432C82.7713 11.432 81.854 11.9867 81.854 13.096C81.854 13.5867 82.0353 13.928 82.398 14.12C82.7607 14.2907 83.262 14.4293 83.902 14.536L86.526 14.952C87.2727 15.0587 87.966 15.2293 88.606 15.464C89.246 15.6773 89.8007 15.976 90.27 16.36C90.7607 16.744 91.1447 17.2133 91.422 17.768C91.6993 18.3227 91.838 18.9947 91.838 19.784C91.838 21.512 91.166 22.8773 89.822 23.88C88.4993 24.8827 86.6113 25.384 84.158 25.384ZM104.818 25C103.111 25 101.842 24.552 101.01 23.656C100.178 22.76 99.7615 21.6187 99.7615 20.232V12.168H95.2815V8.488H98.1935C98.8975 8.488 99.3988 8.34933 99.6975 8.072C99.9962 7.79467 100.146 7.28267 100.146 6.536V2.664H104.498V8.488H110.93V12.168H104.498V21.32H110.93V25H104.818ZM122.725 25.384C121.445 25.384 120.293 25.192 119.269 24.808C118.245 24.4027 117.37 23.8267 116.645 23.08C115.941 22.3333 115.397 21.4267 115.013 20.36C114.629 19.2933 114.437 18.088 114.437 16.744C114.437 15.4 114.629 14.1947 115.013 13.128C115.397 12.0613 115.941 11.1547 116.645 10.408C117.37 9.66133 118.245 9.096 119.269 8.712C120.293 8.30667 121.445 8.104 122.725 8.104C124.005 8.104 125.157 8.30667 126.181 8.712C127.205 9.096 128.069 9.66133 128.773 10.408C129.498 11.1547 130.053 12.0613 130.437 13.128C130.821 14.1947 131.013 15.4 131.013 16.744C131.013 18.088 130.821 19.2933 130.437 20.36C130.053 21.4267 129.498 22.3333 128.773 23.08C128.069 23.8267 127.205 24.4027 126.181 24.808C125.157 25.192 124.005 25.384 122.725 25.384ZM122.725 21.864C123.792 21.864 124.624 21.5333 125.221 20.872C125.818 20.2107 126.117 19.272 126.117 18.056V15.432C126.117 14.216 125.818 13.2773 125.221 12.616C124.624 11.9547 123.792 11.624 122.725 11.624C121.658 11.624 120.826 11.9547 120.229 12.616C119.632 13.2773 119.333 14.216 119.333 15.432V18.056C119.333 19.272 119.632 20.2107 120.229 20.872C120.826 21.5333 121.658 21.864 122.725 21.864ZM134.585 21.32H139.449V12.168H134.265V8.488H139.449V6.088C139.449 4.68 139.854 3.53867 140.665 2.664C141.497 1.768 142.777 1.32 144.505 1.32H150.105V5H144.185V8.488H150.105V12.168H144.185V21.32H149.369V25H134.585V21.32ZM161.548 25.384C158.775 25.384 156.673 24.616 155.244 23.08C153.815 21.544 153.1 19.4533 153.1 16.808C153.1 15.464 153.281 14.2587 153.644 13.192C154.028 12.104 154.561 11.1867 155.244 10.44C155.948 9.672 156.791 9.096 157.772 8.712C158.775 8.30667 159.895 8.104 161.132 8.104C162.369 8.104 163.479 8.30667 164.46 8.712C165.441 9.096 166.273 9.65067 166.956 10.376C167.639 11.1013 168.161 11.9867 168.524 13.032C168.908 14.056 169.1 15.208 169.1 16.488V17.896H157.804V18.184C157.804 19.2507 158.135 20.1147 158.796 20.776C159.457 21.416 160.428 21.736 161.708 21.736C162.689 21.736 163.532 21.5547 164.236 21.192C164.94 20.808 165.548 20.3067 166.06 19.688L168.62 22.472C167.98 23.2613 167.084 23.944 165.932 24.52C164.78 25.096 163.319 25.384 161.548 25.384ZM161.164 11.496C160.14 11.496 159.319 11.816 158.7 12.456C158.103 13.0747 157.804 13.9173 157.804 14.984V15.24H164.46V14.984C164.46 13.896 164.161 13.0427 163.564 12.424C162.988 11.8053 162.188 11.496 161.164 11.496ZM173.024 29.416L183.296 0.679998H187.552L177.28 29.416H173.024ZM192.595 20.392L202.099 15.368V15.112L192.595 10.088V5.672L206.355 13.032V17.448L192.595 24.808V20.392Z" fill="#0D2941"/>
</svg>
